<?xml version="1.0" encoding="utf-8"?>
<!-- Generator: Adobe Illustrator 27.5.0, SVG Export Plug-In . SVG Version: 6.00 Build 0)  -->
<svg version="1.1" id="_x3C_Layer_x3E_" xmlns="http://www.w3.org/2000/svg" xmlns:xlink="http://www.w3.org/1999/xlink" x="0px"
	 y="0px" viewBox="0 0 3000 2000" style="enable-background:new 0 0 3000 2000;" xml:space="preserve">
<rect style="fill:#FFFFFF;" width="3000" height="2000"/>
<g>
	<g>
		<path style="fill:#DFF2F2;" d="M1161.069,292.16c-50.4,35.191-113.196,41.52-173.001,37.439
			c-34.395-2.347-68.46-7.87-102.733-11.413c-17.094-1.767-34.255-3.044-51.447-3.174c-0.955-0.007-1.911-0.008-2.866-0.012
			c0.395,0.002,2.737-0.047,0.42-0.001c-2.052,0.041-4.104,0.069-6.155,0.132c-4.043,0.123-8.083,0.316-12.119,0.578
			c-7.495,0.487-14.976,1.214-22.425,2.176c-8.882,1.147-17.721,2.632-26.492,4.444c-4.244,0.877-8.472,1.83-12.681,2.861
			c-1.964,0.482-3.924,0.98-5.88,1.494c-0.838,0.221-1.675,0.445-2.512,0.67c-5.348,1.435,2.054-0.66-1.002,0.286
			c-16.89,5.234-33.407,11.051-49.51,18.405c-9.236,4.218-21.813-0.644-25.42-10.265c-3.771-10.058,0.407-20.918,10.265-25.42
			c60.025-27.412,125.281-37.278,190.864-32.568c34.056,2.446,67.794,7.906,101.744,11.377c15.314,1.565,30.676,2.736,46.073,2.97
			c1.598,0.024,3.195,0.03,4.793,0.044c0.915,0.008,3.808,0.19-0.402,0.016c0.794,0.033,1.605-0.019,2.399-0.032
			c3.732-0.061,7.462-0.18,11.19-0.362c6.908-0.337,13.806-0.889,20.675-1.694c7.874-0.923,15.71-2.177,23.465-3.825
			c3.856-0.819,7.661-1.805,11.486-2.751c-3.941,0.975,1.276-0.382,2.699-0.822c1.746-0.539,3.484-1.103,5.214-1.689
			c7.397-2.507,14.645-5.457,21.662-8.89c3.511-1.718,6.967-3.553,10.348-5.517c-3.56,2.067,1.434-0.958,2.418-1.594
			c1.766-1.143,3.503-2.329,5.228-3.534c8.312-5.804,20.944-5.353,27.188,3.481C1170.37,273.206,1169.947,285.961,1161.069,292.16
			L1161.069,292.16z"/>
	</g>
	<g>
		<path style="fill:#DFF2F2;" d="M2426.279,377.653c-9.71-11.645-19.832-22.938-30.391-33.82c-1.368-1.41-2.76-2.799-4.126-4.21
			c-1.533-1.583,0.323,0.311,0.534,0.521c-0.596-0.595-1.195-1.187-1.794-1.779c-2.796-2.762-5.619-5.497-8.469-8.203
			c-5.496-5.22-11.092-10.335-16.781-15.343c-22.759-20.033-47.041-38.338-72.565-54.702c-3.781-2.424-7.59-4.806-11.425-7.144
			c-1.678-1.023-3.361-2.037-5.049-3.043c-0.723-0.431-1.449-0.859-2.173-1.29c-4.646-2.763,1.971,1.108-0.747-0.445
			c-7.558-4.321-15.174-8.523-22.893-12.548c-8.964-4.675-15.124-15.34-10.399-25.368c4.167-8.843,15.743-15.419,25.368-10.399
			c57.729,30.107,109.995,68.679,155.878,114.842c12.471,12.547,24.374,25.638,35.704,39.225c6.509,7.806,4.853,21.297-3.481,27.188
			C2444.629,387.381,2433.223,385.98,2426.279,377.653L2426.279,377.653z"/>
	</g>
	<g>
		<path style="fill:#DFF2F2;" d="M2534.475,854.511c-0.316,2.365-0.573,4.734-0.716,7.116c-0.057,0.951-0.079,1.903-0.126,2.854
			c-0.231,4.688-0.184-2.926-0.035-0.204c0.248,4.529,0.561,9.001,1.325,13.48c0.401,2.352,0.958,4.659,1.457,6.99
			c0.768,3.589-0.786-2.286-0.029-0.015c0.377,1.13,0.703,2.277,1.086,3.406c1.456,4.292,3.202,8.485,5.214,12.547
			c0.944,1.904,1.871,3.902,3.037,5.68c-1.318-2.009-1.147-1.94,0.101,0c0.645,1.003,1.306,1.995,1.986,2.974
			c2.582,3.718,5.415,7.26,8.478,10.593c0.319,0.353,0.644,0.701,0.974,1.044c0.979,1.022,0.643,0.703-1.008-0.956
			c-0.007,0.376,1.762,1.688,2.066,1.969c1.746,1.614,3.552,3.165,5.415,4.642c1.864,1.478,3.785,2.885,5.758,4.214
			c0.791,0.532,1.599,1.036,2.396,1.558c4.073,2.669-3.67-1.995,0.599,0.36c8.846,4.879,15.196,15.188,10.399,25.368
			c-4.081,8.661-15.863,15.642-25.368,10.399c-42.2-23.276-67.911-70.597-61.46-118.943c1.341-10.047,11.325-18.564,21.686-16.763
			C2528.022,834.617,2535.912,843.742,2534.475,854.511L2534.475,854.511z"/>
	</g>
	<g>
		<path style="fill:#DFF2F2;" d="M391.301,1227.767c-4.298,22.382-6.911,45.057-7.694,67.838c-0.096,2.807-0.167,5.615-0.209,8.423
			c-0.019,1.248-0.032,2.496-0.04,3.745c-0.003,0.445,0.005,5.368-0.012,3.018c-0.015-2.011,0.03,1.732,0.036,2.081
			c0.027,1.56,0.061,3.12,0.105,4.68c0.079,2.808,0.186,5.614,0.319,8.42c0.547,11.537,1.578,23.04,3.022,34.498
			c1.266,10.046-5.923,20.909-16.455,21.929c-10.317,1-20.573-5.693-21.929-16.455c-5.987-47.512-4.624-96.065,4.408-143.1
			c1.908-9.938,10.918-18.635,21.686-16.763C384.36,1207.788,393.349,1217.103,391.301,1227.767L391.301,1227.767z"/>
	</g>
	<g>
		<defs>
			<path id="SVGID_1_" d="M432.485,968.33c41.343,437.108-237.485,775.105,702.726,877.945
				c166.429,18.2,396.434,31.243,590.528,27.475c157.259-3.043,330.222-16.966,483.058-56.506
				c252.424-65.364,440.458-198.132,446.295-456.734c5.955-264.611-257.057-437.321-214.959-546.01
				c130.281-336.354-81.026-581.162-498.299-668.096c-528.051-110.006-741.128,254.358-956.452,206.969
				C636.375,276.563,390.401,523.317,432.485,968.33z"/>
		</defs>
		<clipPath id="SVGID_00000148631987747842432090000005101260451050205319_">
			<use xlink:href="#SVGID_1_"  style="overflow:visible;"/>
		</clipPath>
		<path style="clip-path:url(#SVGID_00000148631987747842432090000005101260451050205319_);fill:#DFF2F2;" d="M432.485,968.33
			c41.343,437.108-237.485,775.105,702.726,877.945c166.429,18.2,396.434,31.243,590.528,27.475
			c157.259-3.043,330.222-16.966,483.058-56.506c252.424-65.364,440.458-198.132,446.295-456.734
			c5.955-264.611-257.057-437.321-214.959-546.01c130.281-336.354-81.026-581.162-498.299-668.096
			c-528.051-110.006-741.128,254.358-956.452,206.969C636.375,276.563,390.401,523.317,432.485,968.33z"/>
		<g style="clip-path:url(#SVGID_00000148631987747842432090000005101260451050205319_);">
			<g>
				
					<rect x="1340.262" y="380.223" transform="matrix(0.9394 0.3428 -0.3428 0.9394 437.1443 -553.2731)" style="fill:#C4E4E8;" width="886.466" height="1159.189"/>
			</g>
			<g>
				<g>
					<path style="fill:#E9F4F6;" d="M1862.477,610.961c-13.797,37.812-39.986,67.521-72.325,86.194
						c-1.912,1.1-3.837,2.168-5.789,3.201c-15.875,8.348-33.072,14.12-50.917,16.969c-26.824,4.298-55.094,2.002-82.446-7.97
						c-25.671-9.383-47.632-24.471-64.897-43.315c-10.043-10.917-18.513-23.111-25.203-36.185
						c-4.826-9.318-8.713-19.094-11.661-29.188c-9.559-32.589-9.163-68.422,3.368-102.789
						c31.238-85.575,125.916-129.614,211.477-98.393C1849.66,430.707,1893.698,525.401,1862.477,610.961z"/>
				</g>
				<g>
					<g>
						<path style="fill:#384955;" d="M1810.696,515.073c-17.694-78.623-78.97-86.48-78.97-86.48
							c-19.081-1.778-37.614,3.724-52.801,12.472c-15.187,8.748-27.437,20.591-39.078,32.646
							c-13.159,13.627-25.74,27.677-37.714,42.117c-2.332,2.812-4.718,5.827-4.919,9.396c-0.183,3.251,1.484,6.497,3.332,9.496
							c16.522,26.809,48.963,44.275,81.361,56.065c43.901,15.975,90.92,24.281,137.103,24.218
							C1820.074,581.867,1818.159,548.236,1810.696,515.073z"/>
					</g>
					<g>
						<path style="fill:#FFCFBF;" d="M1784.363,700.357c-15.875,8.348-33.072,14.12-50.917,16.969
							c-26.824,4.298-55.094,2.002-82.446-7.97c-25.671-9.383-47.632-24.471-64.897-43.315
							c-10.043-10.917-18.513-23.111-25.203-36.185c14.029-6.009,30.823-9.659,49.258-10.636c13.53-0.734,27.946-0.015,42.795,2.295
							l0.016,0.002c7.603,1.159,15.3,2.748,23.074,4.767c13.579,3.526,26.369,8.135,38.151,13.554
							c13.53,6.248,25.711,13.58,36.206,21.647C1765.71,673.256,1777.406,686.582,1784.363,700.357z"/>
					</g>
					<g>
						<g>
							<g>
								<g>
									<g>
										<path style="fill:#FFCFBF;" d="M1708.478,686.127c15.868,2.005,2.904-39.878,2.904-39.878l26.417-60.268
											c7.713-17.596,0.367-38.055-16.409-45.695c-16.773-7.643-25.457-8.44-33.171,9.156l-36.559,74.722
											C1643.948,641.761,1686.081,683.298,1708.478,686.127z"/>
									</g>
								</g>
							</g>
						</g>
					</g>
					<g>
						<g>
							<g>
								<g>
									<path style="fill:#FFCFBF;" d="M1779.723,487.551c0,0,19.151,109.04-29.022,123.22
										c-29.584,8.708-56.028-15.097-84.907-54.849C1640.938,521.708,1731.768,399.46,1779.723,487.551z"/>
								</g>
							</g>
						</g>
					</g>
					<g>
						<g>
							<g>
								<g>
									<g>
										<path style="fill:#FF9F89;" d="M1693.462,595.687c11.281,10.462,23.667,17.236,38.886,18.753
											c3.235,0.323,3.683-4.936,0.446-5.258c-14.378-1.433-25.795-7.978-36.407-17.82
											C1693.963,589.115,1691.065,593.465,1693.462,595.687L1693.462,595.687z"/>
									</g>
								</g>
							</g>
						</g>
					</g>
					<g>
						<path style="fill:#384955;" d="M1787.987,499.608c1.701-6.231-0.084-13.001-3.393-18.548
							c-3.31-5.547-8.029-10.091-12.69-14.563c-4.188-4.017-8.479-8.107-13.744-10.547c-5.291-2.451-11.232-3.077-17.059-3.3
							c-17.901-0.688-36.272,2.251-51.933,10.95c-0.695,0.386-1.44,0.85-1.68,1.609c-0.187,0.591-0.02,1.229,0.15,1.824
							c3.422,12.03,7.94,24.674,4.549,36.712c7.792-0.985,15.399-3.077,23.139-4.413c24.438-4.219,50.161-0.655,72.531,10.051
							L1787.987,499.608z"/>
					</g>
					<g>
						<path style="fill:#384955;" d="M1711.515,486.79l-4.558-10.318c-16.191-0.23-31.973,7.886-42.423,20.255
							c-10.45,12.369-15.768,28.626-16.256,44.81c-0.24,7.957,0.797,16.384,5.585,22.743c3.615,4.802,8.978,7.919,14.193,10.907
							c1.094,0.627,2.293,1.276,3.543,1.109c1.293-0.174,2.297-1.174,3.182-2.132
							C1696.629,550.519,1709.083,518.892,1711.515,486.79z"/>
					</g>
					<g>
						<g>
							<path style="fill:#4D6371;" d="M1718.464,446.809c-17.568,4.382-30.669,16.405-43.014,29.044
								c-16.351,16.741-32.723,33.444-49.423,49.839c-0.882,0.866,0.322,2.384,1.213,1.51c15.272-14.993,30.36-30.17,45.254-45.539
								c13.321-13.746,27.065-28.149,46.28-32.941C1719.971,448.422,1719.677,446.506,1718.464,446.809L1718.464,446.809z"/>
						</g>
					</g>
					<g>
						<g>
							<path style="fill:#4D6371;" d="M1701.183,478.44c-18.254,22.097-35.506,47.771-58.82,64.848
								c-1.008,0.738,0.208,2.246,1.213,1.51c23.484-17.201,40.8-42.975,59.164-65.205
								C1703.536,478.63,1701.975,477.482,1701.183,478.44L1701.183,478.44z"/>
						</g>
					</g>
				</g>
				<g>
					<path style="fill:#384955;" d="M1784.363,700.357c-15.875,8.348-33.072,14.12-50.917,16.969
						c-26.824,4.298-55.094,2.002-82.446-7.97c-25.671-9.383-47.632-24.471-64.897-43.315
						c-10.043-10.917-18.513-23.111-25.203-36.185c14.029-6.009,30.823-9.659,49.258-10.636
						c12.732,12.551,38.141,35.449,65.777,48.383l0.016,0.002c13.313,6.24,27.13,10.151,40.294,9.486
						c12.271-0.622,23.962-5.204,34.154-15.607C1765.71,673.256,1777.406,686.582,1784.363,700.357z"/>
				</g>
			</g>
			<g>
				<g>
					<path style="fill:#D3F0F4;" d="M1502.839,758.008c76.832,27.309,153.665,54.619,230.497,81.929
						c7.967,2.832,12.835-9.386,4.853-12.223c-76.832-27.31-153.665-54.619-230.497-81.929
						C1499.725,742.953,1494.857,755.171,1502.839,758.008L1502.839,758.008z"/>
				</g>
			</g>
			<g>
				<g>
					<path style="fill:#D3F0F4;" d="M1483.457,809.923c55.193,19.618,110.385,39.236,165.577,58.853
						c70.237,24.965,140.475,49.931,210.712,74.896c26.26,9.334,52.52,18.668,78.781,28.002c7.967,2.832,12.835-9.386,4.853-12.223
						c-55.193-19.618-110.385-39.236-165.578-58.853c-70.237-24.966-140.474-49.931-210.712-74.896
						c-26.26-9.334-52.521-18.668-78.781-28.002C1480.343,794.867,1475.475,807.086,1483.457,809.923L1483.457,809.923z"/>
				</g>
			</g>
			<g>
				<g>
					<path style="fill:#D3F0F4;" d="M1772.818,856.741c100.095,35.578,200.191,71.156,300.287,106.735
						c22.69,8.065,45.38,16.13,68.07,24.195c7.967,2.832,12.835-9.386,4.853-12.223c-100.096-35.578-200.191-71.156-300.287-106.735
						c-22.69-8.065-45.38-16.13-68.07-24.195C1769.704,841.685,1764.836,853.904,1772.818,856.741L1772.818,856.741z"/>
				</g>
			</g>
			<g>
				<g>
					<path style="fill:#D3F0F4;" d="M1982.758,988.372c48.121,17.026,96.242,34.053,144.364,51.079
						c7.97,2.82,12.839-9.398,4.853-12.224c-48.121-17.026-96.242-34.052-144.364-51.079
						C1979.641,973.329,1974.772,985.547,1982.758,988.372L1982.758,988.372z"/>
				</g>
			</g>
			<g>
				<g>
					<path style="fill:#D3F0F4;" d="M1460.411,857.117c72.846,24.265,144.938,50.73,216.181,79.361
						c7.864,3.16,12.704-9.068,4.853-12.224c-71.244-28.631-143.335-55.096-216.181-79.361
						C1457.256,842.226,1452.375,854.44,1460.411,857.117L1460.411,857.117z"/>
				</g>
			</g>
			<g>
				<g>
					<path style="fill:#D3F0F4;" d="M1717.708,950.938c129.396,47.288,258.793,94.577,388.189,141.865
						c7.947,2.904,12.809-9.316,4.853-12.224c-129.396-47.288-258.793-94.577-388.189-141.865
						C1714.614,935.81,1709.752,948.03,1717.708,950.938L1717.708,950.938z"/>
				</g>
			</g>
			<g>
				<g>
					<path style="fill:#D3F0F4;" d="M1410.472,958.504c55.193,19.618,110.385,39.236,165.578,58.853
						c70.237,24.966,140.475,49.931,210.712,74.896c26.26,9.334,52.521,18.668,78.781,28.002c7.967,2.832,12.835-9.386,4.853-12.223
						c-55.193-19.618-110.385-39.236-165.578-58.853c-70.237-24.965-140.475-49.931-210.712-74.896
						c-26.26-9.334-52.521-18.668-78.781-28.002C1407.358,943.449,1402.49,955.667,1410.472,958.504L1410.472,958.504z"/>
				</g>
			</g>
			<g>
				<g>
					<path style="fill:#D3F0F4;" d="M1909.773,1136.954c48.121,17.026,96.242,34.053,144.364,51.079
						c7.97,2.82,12.839-9.398,4.853-12.224c-48.121-17.026-96.242-34.052-144.364-51.079
						C1906.655,1121.911,1901.787,1134.129,1909.773,1136.954L1909.773,1136.954z"/>
				</g>
			</g>
			<g>
				<g>
					<path style="fill:#D3F0F4;" d="M1387.426,1005.698c72.846,24.265,144.938,50.73,216.182,79.361
						c7.864,3.16,12.705-9.068,4.853-12.223c-71.244-28.631-143.335-55.096-216.181-79.361
						C1384.271,990.808,1379.389,1003.021,1387.426,1005.698L1387.426,1005.698z"/>
				</g>
			</g>
			<g>
				<g>
					<path style="fill:#D3F0F4;" d="M1644.722,1099.52c129.396,47.288,258.793,94.577,388.189,141.865
						c7.947,2.904,12.809-9.316,4.853-12.223c-129.397-47.288-258.793-94.577-388.189-141.865
						C1641.628,1084.392,1636.766,1096.612,1644.722,1099.52L1644.722,1099.52z"/>
				</g>
			</g>
			<g>
				<g>
					<g>
						<path style="fill:#D3F0F4;" d="M1998.759,546.491c88.862,31.249,177.724,62.497,266.585,93.745
							c7.974,2.804,12.844-9.413,4.853-12.223c-88.862-31.248-177.723-62.497-266.585-93.746
							C1995.637,531.463,1990.767,543.68,1998.759,546.491L1998.759,546.491z"/>
					</g>
				</g>
				<g>
					<g>
						<path style="fill:#D3F0F4;" d="M1984.508,585.083c88.861,31.249,177.723,62.497,266.585,93.746
							c7.974,2.804,12.844-9.413,4.853-12.223c-88.862-31.248-177.723-62.497-266.585-93.746
							C1981.386,570.056,1976.516,582.273,1984.508,585.083L1984.508,585.083z"/>
					</g>
				</g>
				<g>
					<g>
						<path style="fill:#D3F0F4;" d="M1970.47,634.011c86.752,30.742,173.504,61.485,260.255,92.227
							c7.969,2.824,12.837-9.394,4.853-12.223c-86.752-30.743-173.503-61.485-260.255-92.227
							C1967.354,618.963,1962.485,631.181,1970.47,634.011L1970.47,634.011z"/>
					</g>
				</g>
				<g>
					<g>
						<path style="fill:#D3F0F4;" d="M1952.791,686.717c45.369,15.462,90.738,30.925,136.107,46.387
							c7.994,2.725,12.871-9.491,4.853-12.223c-45.369-15.462-90.738-30.925-136.107-46.387
							C1949.649,671.769,1944.772,683.984,1952.791,686.717L1952.791,686.717z"/>
					</g>
				</g>
				<g>
					<g>
						<path style="fill:#D3F0F4;" d="M2124.602,748.553c31.916,11.815,63.832,23.629,95.748,35.444
							c7.937,2.938,12.796-9.283,4.853-12.223c-31.916-11.814-63.833-23.629-95.749-35.444
							C2121.518,733.392,2116.659,745.613,2124.602,748.553L2124.602,748.553z"/>
					</g>
				</g>
				<g>
					<g>
						<path style="fill:#D3F0F4;" d="M1935.245,734.74c87.615,32.667,176.057,63.075,265.236,91.195
							c8.035,2.534,12.928-9.677,4.853-12.223c-89.179-28.119-177.62-58.528-265.236-91.195
							C1932.166,719.559,1927.309,731.781,1935.245,734.74L1935.245,734.74z"/>
					</g>
				</g>
			</g>
		</g>
		<g style="clip-path:url(#SVGID_00000148631987747842432090000005101260451050205319_);">
			<g>
				<g>
					<path style="fill:#FDBAA0;" d="M381.398,1399.63l319.466,194.703c201.74-120.714,271.814-162.375,271.927-162.563
						c8.765-10.114,50.071-61.241,73.417-75.962c-22.804-45.967-34.612-69.757-44.232-89.196
						c0.006-0.25,9.033-365.789,8.838-365.909c-17.193,20.383-236.25,307.071-340.634,362.281c0,0-0.013-0.008-0.021,0.005
						c-3.77,2.022-2.57,1.097-3.094,1.954c-5.602,9.19-128.368,61.387-278.589,123.073L381.398,1399.63z"/>
				</g>
			</g>
			<g>
				<path style="fill:#FDBAA0;" d="M961.544,980.859c4.251,2.278,101.388,20.331,91.179,32.875
					c-39.843,48.95-50.791,124.418-34.217,151.223c31.75,51.349,92.945,30.459,99.559,27.79l-159.254,149.155
					c-43.327,6.75-281.839,16.26-281.563,1.726C678.381,1284.024,950.701,975.047,961.544,980.859z"/>
			</g>
			<g>
				<path style="fill:#FDBAA0;" d="M617.322,1300.032c0,0,111.416-67.351,162.326-152.549
					c70.769-118.432,135.809-263.103,151.955-279.411c27.76-28.04,118.382-83.38,143.055-85.944
					c24.673-2.564,104.72-15.999,120.932-9.673c16.212,6.325-32.239,62.474-92.789,94.729
					c-60.55,32.255-125.625,88.125-125.625,88.125l-97.001,301.835L617.322,1300.032z"/>
			</g>
			<g>
				<path style="fill:#FDBAA0;" d="M866.55,1062.265c0,0,107.978-206.283,164.169-231.389
					c56.192-25.105,121.154-42.921,159.02-21.735c37.865,21.186,107.581,85.072,105.827,97.533
					c-1.754,12.461-62.297,13.729-102.834-2.361c-40.537-16.09-149.662,31.693-149.662,31.693l-119.859,132.46L866.55,1062.265z"/>
			</g>
			<g>
				<path style="fill:#FDBAA0;" d="M877.212,1266.394c0,0,105.333-330.594,133.602-365.686
					c28.269-35.091,155.382-25.575,194.951-18.239s117.283,101.532,117.225,128.646c-0.07,33.263-68.246,10.23-111.341-20.997
					c-39.593-28.69-96.941-12.932-116.595-13.024c-5.725-0.026-16.986,8.519-29.004,21.198
					c-15.67,16.531-32.628,40.089-40.28,60.833c-25.904,70.226,53.291,140.029,53.291,140.029L877.212,1266.394z"/>
			</g>
			<g>
				<g>
					<path style="fill:#EF9F8A;" d="M1146.356,822.533c-18.667,1.568-37.316,3.347-55.94,5.372
						c-18.152,1.974-36.981,3.214-54.337,9.271c-31.069,10.842-52.35,37.815-71.969,62.801c-3.015,3.84-8.778-1.101-5.76-4.944
						c19.993-25.461,41.711-52.427,72.97-64.204c16.993-6.402,35.443-7.94,53.347-9.927c20.312-2.254,40.654-4.219,61.019-5.93
						C1150.561,814.562,1151.228,822.124,1146.356,822.533L1146.356,822.533z"/>
				</g>
			</g>
			<g>
				<g>
					<polygon style="fill:#FFFFFF;" points="1908.633,1825.476 995.517,1628.16 1253.538,434.122 2030.582,602.034 
						2142.694,742.315 					"/>
				</g>
				<g>
					<g>
						<path style="fill:#E9F4F6;" d="M1613.29,754.233c-8.96,41.466-32.025,76.25-63.085,100.406
							c-16.756,13.043-35.846,22.993-56.296,29.223c-27.387,8.345-57.235,10.025-87.216,3.546
							c-28.16-6.085-53.245-18.677-73.998-35.864c-20.641-17.064-37.012-38.668-47.9-62.93
							c-14.674-32.656-19.42-70.12-11.277-107.803c20.274-93.823,112.774-153.449,206.597-133.175
							C1573.938,567.91,1633.564,660.41,1613.29,754.233z"/>
					</g>
					<g>
						<g>
							<g>
								<path style="fill:#384955;" d="M1426.485,599.968c-12.216-0.85-25.28,2.271-33.758,12.046
									c-3.949,4.554-6.374,10.112-7.021,16.142c-0.67,6.245,0.18,12.476,0.567,18.696c0.399,6.41,0.265,13.019-2.865,18.812
									c-2.946,5.452-7.838,10.009-8.994,16.339c-1.201,6.574,2.143,13.104,0.245,19.626c-0.976,3.355-2.9,6.318-4.636,9.304
									c-1.754,3.017-3.208,6.125-4.156,9.502c-2.105,7.501-2.024,15.642-1.207,23.308c0.614,5.756,2.144,11.858,7.146,15.153
									c0.958,0.631,1.782-0.995,0.833-1.62c-4.628-3.049-5.791-9.153-6.279-14.407c-0.638-6.872-0.747-13.994,0.902-20.76
									c0.849-3.482,2.239-6.697,4.013-9.791c1.562-2.724,3.293-5.379,4.439-8.324c2.331-5.987,0.545-11.544,0.235-17.655
									c-0.343-6.76,3.648-11.516,7.174-16.804c3.225-4.838,4.812-10.021,5.056-15.84c0.497-11.851-3.662-24.477,2.412-35.546
									c7.171-13.068,22.376-17.308,35.984-16.361C1427.709,601.866,1427.613,600.047,1426.485,599.968L1426.485,599.968z"/>
							</g>
						</g>
						<g>
							<path style="fill:#384955;" d="M1462.99,688.648c3.021-16.166,6.917-32.17,11.662-47.914l-44.694-40.947
								c-9.355,1.127-19.096,3.365-26.192,9.787c-10.7,9.684-12.466,26.028-11.47,40.535c0.996,14.507,3.949,29.384-0.111,43.379
								c-4.326,14.915-16.152,26.893-19.477,42.064c-3.651,16.656,4.124,34.333,16.669,45.334c12.545,11,29.127,16.13,45.593,18.074
								c0.824,0.097,1.681,0.184,2.467-0.1c1.48-0.534,2.252-2.172,2.847-3.662C1453.776,761.427,1456.304,724.423,1462.99,688.648z
								"/>
						</g>
						<g>
							<path style="fill:#FCBFAF;" d="M1550.205,854.639c-16.756,13.043-35.846,22.993-56.296,29.223
								c-25.304-1.112-56.569-5.26-89.957-12.475c-26.311-5.685-50.635-12.562-71.257-19.843
								c-20.641-17.064-37.012-38.668-47.9-62.93c11.758-10.3,27.683-18.129,46.313-22.974l0.009,0.002
								c13.365-3.473,28.125-5.41,43.731-5.633c9.046-0.129,18.371,0.325,27.882,1.383c7.938,0.886,16.002,2.194,24.137,3.951
								c5.219,1.128,10.344,2.413,15.35,3.841c2,0.571,3.985,1.167,5.945,1.789c1.361,0.422,2.71,0.852,4.053,1.31
								c2.572,0.852,5.105,1.745,7.609,2.681c0.557,0.209,1.115,0.419,1.67,0.638c17.071,6.524,32.399,14.765,45.4,24.173
								c2.197,1.581,4.334,3.208,6.398,4.859c0.007,0.012,0.017,0.014,0.026,0.016
								C1531.923,819.524,1544.902,836.849,1550.205,854.639z"/>
						</g>
						<g>
							<path style="fill:#FF8D67;" d="M1550.205,854.639c-16.756,13.043-35.846,22.993-56.296,29.223
								c-27.387,8.345-57.235,10.025-87.216,3.546c-28.16-6.085-53.245-18.677-73.998-35.864
								c-20.641-17.064-37.012-38.668-47.9-62.93c11.758-10.3,27.683-18.129,46.313-22.974l0.009,0.002
								c0,0,63.512,98.564,174.085,35.109c0.564-0.323,1.127-0.645,1.693-0.978c2.197,1.581,4.334,3.208,6.398,4.859
								c0.007,0.012,0.017,0.014,0.026,0.016C1531.923,819.524,1544.902,836.849,1550.205,854.639z"/>
						</g>
						<g>
							<g>
								<g>
									<g>
										<g>
											<path style="fill:#FCBFAF;" d="M1413.716,787.636c-14.25-4.964-12.794-16.309-9.895-32.783l11.507-65.385
												c3.23-18.355,19.769-31.027,36.94-28.304c17.171,2.72,18.229,6.451,15,24.807l-12.205,78.189
												C1451.831,782.514,1429.289,794.287,1413.716,787.636z"/>
										</g>
									</g>
								</g>
							</g>
						</g>
						<g>
							<g>
								<g>
									<g>
										<path style="fill:#FCBFAF;" d="M1431.741,607.8c0,0-68.88,70.037-41.978,105.09c16.521,21.527,47.316,17.637,87.926,3.317
											C1512.64,703.882,1510.378,567.852,1431.741,607.8z"/>
									</g>
								</g>
							</g>
						</g>
						<g>
							<g>
								<g>
									<g>
										<g>
											<path style="fill:#F3A99C;" d="M1437.929,731.157c-13.293,1.884-25.496,0.501-37.038-6.182
												c-2.454-1.421-0.103-5.5,2.353-4.078c10.903,6.313,22.305,7.367,34.809,5.595
												C1440.909,726.087,1440.753,730.756,1437.929,731.157L1437.929,731.157z"/>
										</g>
									</g>
								</g>
							</g>
						</g>
						<g>
							<path style="fill:#384955;" d="M1517.949,693.557c2.159-9.727,2.283-19.767,2.399-29.719
								c0.118-10.211,0.192-20.697-3.302-30.216c-5.846-15.931-20.592-26.392-35.347-34.143l-28.574,7.487
								c6.014,1.793,9.936,7.368,9.289,12.426c-0.647,5.058-2.098,10.097-1.638,15.163c0.959,10.579,9.751,18.336,14.1,27.938
								c2.918,6.443-0.047,13.977-1.378,20.998c-1.175,6.198-0.174,12-0.287,18.301c-0.055,3.096,0.551,6.239-0.156,9.257
								c-0.744,3.177-2.848,5.818-4.326,8.721c-2.314,4.545-3.072,10.01-1.521,14.84c1.551,4.831,5.567,8.86,10.445,9.803
								c8.4,1.622,15.929-5.551,21.225-12.522C1507.552,720.472,1514.827,707.631,1517.949,693.557z"/>
						</g>
						<g>
							<path style="fill:#384955;" d="M1558.699,788.844c1.07-11.063-1.789-22.045-2.539-33.114
								c-0.805-11.885,0.835-23.871,3.713-35.457c3.173-12.772,5.737-25.588,5.404-38.723
								c-0.536-21.178-10.614-40.406-29.899-68.644c-24.366-35.679-54.412-51.381-86.547-43.302
								c-32.136,8.079-24.869,46.727-23.411,45.05c25.104-28.884,58.909,12.675,59.43,49.446l-18.05,24.478
								c0.896,8.462-1.448,17.28-6.425,24.163c-2.731,3.778-6.29,7.125-7.688,11.594c-1.914,6.116,0.694,12.735-0.123,19.091
								c-1.06,8.249-7.633,14.747-9.78,22.784c-2.876,10.771,3.15,22.487,12.274,28.408c9.124,5.921,20.606,6.909,31.395,5.576
								c3.997-0.494,8.007-1.284,12.011-0.963c7.523,0.604,14.116,5.007,20.64,8.833c6.525,3.826,13.945,7.286,21.369,5.773
								C1551.113,811.666,1557.629,799.908,1558.699,788.844z"/>
						</g>
						<g>
							<g>
								<g>
									<g>
										<g>
											<path style="fill:#FCBFAF;" d="M1460.597,685.486c0,0,15.047-13.069,20.954-6.531c5.908,6.537-1.12,23.299-9.255,23.989
												c-8.136,0.69-12.416-12.554-12.057-15.006L1460.597,685.486z"/>
										</g>
									</g>
								</g>
							</g>
							<g>
								<g>
									<g>
										<g>
											<g>
												<path style="fill:#FDBAA0;" d="M1465.881,700.919c-0.932-1.934-0.733-0.313,0.291-0.517
													c0.441-0.088,1.329,0.189,1.784,0.2c2.051,0.048,4.185-0.516,6.021-1.528c3.166-1.746,5.198-4.74,6.957-7.961
													c1.033-1.892,2.323-3.785,2.014-6.151c-0.611-4.686-5.037-5.322-8.256-3.53c-2.543,1.416-4.126-2.942-1.606-4.345
													c5.296-2.948,11.755-0.899,13.79,5.257c1.957,5.922-2.493,13.067-6.32,17.203c-3.211,3.471-7.483,5.584-12.008,5.73
													c-2.293,0.074-5.59-0.092-6.767-2.536C1460.494,700.071,1464.607,698.273,1465.881,700.919L1465.881,700.919z"/>
											</g>
										</g>
									</g>
								</g>
							</g>
						</g>
						<g>
							<g>
								<path style="fill:#4D6371;" d="M1450.643,605.894c6.141-6.028,16.194-6.586,22.514-0.763
									c2.922,2.693,4.945,6.464,5.481,10.485c0.581,4.354-0.781,8.64-1.938,12.793c-1.095,3.932-2.131,8.049-1.311,12.123
									c0.766,3.809,3.169,6.831,5.918,9.363c2.896,2.668,6.116,4.935,8.77,7.876c2.802,3.104,5.067,6.763,6.605,10.697
									c3.209,8.211,3.103,17.491-0.723,25.557c-1.897,3.997-4.63,7.591-8.07,10.318c-3.071,2.434-6.701,4.29-9.036,7.577
									c-5.418,7.629-0.129,16.78,2.327,24.309c1.597,4.895,1.725,9.699-0.667,14.404c-2.176,4.278-5.591,7.654-9.048,10.848
									c-6.601,6.099-14.949,13.651-13.503,23.787c1.256,8.801,10.05,12.363,17.284,14.807c1.08,0.365,1.457-1.421,0.385-1.783
									c-7.608-2.57-17.151-6.789-15.934-16.767c1.189-9.746,9.95-15.47,16.222-21.838c3.093-3.14,5.888-6.77,7.341-11.017
									c1.451-4.243,1.033-8.549-0.293-12.728c-1.459-4.597-3.816-8.919-4.472-13.769c-0.693-5.117,0.942-9.202,4.941-12.369
									c3.329-2.635,6.864-4.731,9.654-8.035c2.625-3.107,4.61-6.73,5.924-10.599c2.7-7.951,2.199-16.666-1.054-24.292
									c-1.498-3.514-3.507-6.753-5.959-9.64c-2.698-3.176-6.025-5.575-9.093-8.337c-3.321-2.99-5.961-6.488-6.049-11.236
									c-0.082-4.424,1.622-8.701,2.682-12.935c1.105-4.416,1.469-8.867-0.078-13.191c-1.377-3.848-3.926-7.206-7.258-9.461
									c-7.052-4.771-16.793-3.369-22.865,2.592C1448.508,605.488,1449.816,606.706,1450.643,605.894L1450.643,605.894z"/>
							</g>
						</g>
						<g>
							<g>
								<path style="fill:#4D6371;" d="M1455.212,601.992c13.482-11.062,35-10.658,47.061,2.148
									c3.248,3.448,5.844,7.942,6.317,12.809c0.547,5.637-2.534,10.006-4.578,14.98c-3.836,9.333-1.823,19.84,2.521,28.495
									c4.748,9.46,12.14,17.067,18.462,25.376c5.985,7.867,11.594,17.059,11.793,27.405c0.092,4.775-0.944,9.669-3.338,13.825
									c-2.47,4.289-6.227,6.943-10.606,8.876c-3.933,1.736-8.13,3.136-11.457,6.021c-3.367,2.921-5.37,7.242-5.548,11.732
									c-0.355,8.937,6.877,14.882,12.319,20.69c3.384,3.612,6.112,7.652,7.597,12.481c1.495,4.862,2.476,11.997-1.609,15.94
									c-1.832,1.769-4.509,2.631-6.859,1.568c-1.038-0.47-1.875,1.148-0.833,1.62c3.719,1.683,8.051-0.104,10.263-3.529
									c2.839-4.396,2.326-10.245,1.051-15.05c-1.266-4.769-3.686-9.018-6.868-12.685c-3.046-3.511-6.627-6.535-9.432-10.267
									c-2.978-3.963-4.677-8.706-3.423-13.754c1.401-5.637,5.739-8.859,10.693-11.054c4.17-1.848,8.549-3.332,12.036-6.45
									c3.418-3.057,5.666-7.28,6.827-11.726c5.797-22.197-14.107-38.559-25.08-54.518c-6.239-9.074-11.119-20.775-7.69-32.062
									c1.605-5.284,5.26-9.723,5.582-15.404c0.263-4.627-1.408-9.169-3.925-12.913c-10.008-14.887-31.444-18.022-46.662-9.834
									c-1.975,1.062-3.827,2.325-5.569,3.755C1453.368,601.197,1454.313,602.729,1455.212,601.992L1455.212,601.992z"/>
							</g>
						</g>
						<g>
							<g>
								<path style="fill:#4D6371;" d="M1523.985,747.599c-3.893,0.143-6.876,3.651-7.182,7.525
									c-0.386,4.882,2.654,9.012,5.973,12.099c3.894,3.622,8.003,6.874,11.476,10.959c3.614,4.251,6.646,9.107,8.422,14.481
									c1.976,5.981,2.364,12.419,0.591,18.545c-0.327,1.128,1.409,1.498,1.734,0.375c3.512-12.133-1.182-24.575-8.763-33.822
									c-1.924-2.347-4.019-4.538-6.233-6.597c-2.411-2.241-5.074-4.215-7.354-6.601c-2.155-2.255-4.038-5.16-4.107-8.443
									c-0.07-3.292,2.14-6.579,5.534-6.703C1525.217,749.377,1525.13,747.557,1523.985,747.599L1523.985,747.599z"/>
							</g>
						</g>
						<g>
							<g>
								<path style="fill:#4D6371;" d="M1486.143,722.166c0.276,3.073,1.077,5.974,2.374,8.745c0.492,1.051,1.986,0.045,1.498-0.996
									c-1.16-2.479-1.851-5.116-2.098-7.861C1487.813,720.891,1486.038,720.995,1486.143,722.166L1486.143,722.166z"/>
							</g>
						</g>
						<g>
							<g>
								<path style="fill:#4D6371;" d="M1527.544,671.267c1.348,2.158,2.697,4.316,4.045,6.474c0.614,0.983,2.113-0.012,1.498-0.996
									c-1.348-2.158-2.697-4.316-4.045-6.474C1528.428,669.288,1526.929,670.284,1527.544,671.267L1527.544,671.267z"/>
							</g>
						</g>
					</g>
				</g>
				<g>
					<g>
						<path style="fill:#8FCEC5;" d="M1500.345,1503.453c-91.368-19.744-149.635-110.135-129.892-201.496
							c19.745-91.374,110.136-149.641,201.504-129.898c91.368,19.744,149.635,110.135,129.89,201.509
							C1682.103,1464.93,1591.712,1523.197,1500.345,1503.453z M1566.448,1197.548c-77.312-16.706-153.799,32.598-170.507,109.917
							c-16.705,77.306,32.6,153.793,109.912,170.499c77.312,16.707,153.799-32.598,170.505-109.904
							C1693.065,1290.742,1643.76,1214.255,1566.448,1197.548z"/>
					</g>
					<g>
						<g>
							<path style="fill:#FF8D67;" d="M1426.354,1302.694c8.174,19.656,16.348,39.312,24.522,58.968
								c3.924,9.435,7.847,18.87,11.771,28.305c2.477,5.957,4.828,12.087,8.312,17.531c7.741,12.097,22.049,19.377,36.302,18.963
								c19.227-0.559,32.452-14.095,45.76-26.167c7.313-6.635,14.541-13.364,21.745-20.117
								c38.75-36.332,76.833-73.37,115.385-109.911c16.442-15.584,32.833-31.294,49.963-46.127
								c6.534-5.659,9.781-17.907,9.322-26.112c-0.479-8.57-4.84-18.688-11.522-24.304c-7.169-6.025-16.511-10.287-26.112-9.322
								c-9.83,0.988-16.888,5.1-24.304,11.522c-66.533,57.616-126.688,122.327-192.367,180.904c-1.353,1.207-2.717,2.4-4.074,3.602
								c-2.202,1.949-4.668,2.492,3.583-2.996c-3.106,2.085-2.068,1.771,3.116-0.942c18.358-2.343,29.919,2.993,34.685,16.006
								c0.137-0.625-1.872-4.502-1.962-4.718c-1.308-3.145-2.616-6.29-3.924-9.435c-2.289-5.504-4.577-11.007-6.866-16.511
								c-8.501-20.442-17.002-40.884-25.503-61.326c-3.621-8.707-8.788-16.041-17.378-20.53c-7.851-4.103-19.191-5.467-27.631-2.291
								C1432.241,1264.056,1418.689,1284.265,1426.354,1302.694L1426.354,1302.694z"/>
						</g>
					</g>
				</g>
				<g>
					<g>
						<g>
							<path style="fill:#C0E2E8;" d="M1266.394,926.374c84.143,17.443,168.285,34.885,252.428,52.328
								c8.218,1.703,10.993-11.046,2.756-12.753c-84.143-17.443-168.286-34.885-252.428-52.328
								C1260.932,911.917,1258.156,924.666,1266.394,926.374L1266.394,926.374z"/>
						</g>
					</g>
					<g>
						<g>
							<path style="fill:#C0E2E8;" d="M1253.637,983.362c60.446,12.53,120.891,25.06,181.337,37.591
								c76.922,15.946,153.843,31.892,230.765,47.837c28.756,5.961,57.511,11.922,86.267,17.883
								c8.218,1.704,10.993-11.046,2.756-12.753c-60.446-12.53-120.891-25.061-181.337-37.591
								c-76.922-15.946-153.843-31.891-230.765-47.837c-28.756-5.961-57.511-11.922-86.267-17.883
								C1248.176,968.906,1245.4,981.655,1253.637,983.362L1253.637,983.362z"/>
						</g>
					</g>
					<g>
						<g>
							<path style="fill:#C0E2E8;" d="M1562.459,990.558c49.854,10.334,99.707,20.669,149.561,31.004
								c59.946,12.427,119.891,24.853,179.837,37.28c24.669,5.114,49.337,10.227,74.006,15.341
								c8.218,1.704,10.993-11.046,2.756-12.753c-49.854-10.334-99.707-20.669-149.561-31.004
								c-59.946-12.427-119.891-24.853-179.837-37.28c-24.669-5.114-49.337-10.228-74.006-15.341
								C1556.997,976.101,1554.222,988.85,1562.459,990.558L1562.459,990.558z"/>
						</g>
					</g>
					<g>
						<g>
							<path style="fill:#C0E2E8;" d="M1800.586,1097.734c52.689,10.843,105.377,21.686,158.066,32.529
								c8.219,1.692,10.996-11.058,2.756-12.753c-52.689-10.843-105.377-21.686-158.066-32.529
								C1795.123,1083.289,1792.346,1096.039,1800.586,1097.734L1800.586,1097.734z"/>
						</g>
					</g>
					<g>
						<g>
							<path style="fill:#C0E2E8;" d="M1236.376,1035.95c79.543,14.826,158.62,32.071,237.114,51.71
								c8.152,2.04,10.898-10.716,2.756-12.753c-78.494-19.639-157.571-36.884-237.114-51.71
								C1230.892,1021.661,1228.102,1034.408,1236.376,1035.95L1236.376,1035.95z"/>
						</g>
					</g>
					<g>
						<g>
							<path style="fill:#C0E2E8;" d="M1518.495,1096.833c110.644,23.961,221.288,47.921,331.932,71.882
								c31.251,6.767,62.501,13.535,93.752,20.302c8.206,1.777,10.975-10.974,2.756-12.753
								c-110.644-23.96-221.288-47.921-331.932-71.882c-31.251-6.768-62.501-13.535-93.752-20.303
								C1513.045,1082.303,1510.276,1095.053,1518.495,1096.833L1518.495,1096.833z"/>
						</g>
					</g>
				</g>
				<g>
					<g>
						<g>
							<path style="fill:#C0E2E8;" d="M1736.419,713.822c97.268,19.822,194.536,39.644,291.804,59.466
								c8.177,1.667,10.94-11.014,2.741-12.685c-97.268-19.822-194.536-39.644-291.804-59.466
								C1730.983,699.471,1728.22,712.151,1736.419,713.822L1736.419,713.822z"/>
						</g>
					</g>
					<g>
						<g>
							<path style="fill:#C0E2E8;" d="M1727.101,756.163c97.268,19.822,194.536,39.644,291.804,59.466
								c8.177,1.667,10.94-11.014,2.741-12.685c-97.268-19.822-194.536-39.644-291.804-59.466
								C1721.665,741.812,1718.902,754.492,1727.101,756.163L1727.101,756.163z"/>
						</g>
					</g>
					<g>
						<g>
							<path style="fill:#C0E2E8;" d="M1719.494,809.263c94.993,19.598,189.985,39.195,284.978,58.793
								c8.174,1.687,10.936-10.994,2.741-12.685c-94.993-19.598-189.985-39.195-284.978-58.793
								C1714.06,794.892,1711.299,807.572,1719.494,809.263L1719.494,809.263z"/>
						</g>
					</g>
					<g>
						<g>
							<path style="fill:#C0E2E8;" d="M1708.629,866.832c49.59,9.607,99.18,19.214,148.77,28.821
								c8.189,1.586,10.958-11.093,2.741-12.685c-49.59-9.607-99.18-19.214-148.77-28.821
								C1703.182,852.561,1700.412,865.24,1708.629,866.832L1708.629,866.832z"/>
						</g>
					</g>
					<g>
						<g>
							<path style="fill:#C0E2E8;" d="M1896.898,906.638c35.021,7.737,70.041,15.473,105.062,23.209
								c8.155,1.802,10.907-10.881,2.741-12.685c-35.021-7.737-70.041-15.473-105.062-23.21
								C1891.484,892.151,1888.733,904.834,1896.898,906.638L1896.898,906.638z"/>
						</g>
					</g>
					<g>
						<g>
							<path style="fill:#C0E2E8;" d="M1697.229,919.493c96.167,21.492,192.88,40.499,290.028,56.998
								c8.208,1.394,10.995-11.283,2.741-12.685c-97.149-16.499-193.861-35.505-290.028-56.998
								C1691.819,904.986,1689.069,917.669,1697.229,919.493L1697.229,919.493z"/>
						</g>
					</g>
				</g>
				<g>
					<polygon style="fill:#AFD0D3;" points="2030.582,602.034 2006.623,712.911 2142.694,742.315 					"/>
				</g>
			</g>
			<path style="fill:#FDBAA0;" d="M1025.769,1059.125c4.087-11.08,10.84-22.957,18.623-34.143
				c-19.433-11.772-47.8-28.862-70.313-42.037c-28.565,75.404-64.013,182.279-83.118,240.893l98.71,5.092l89.389-29.777
				C1079.06,1199.154,999.865,1129.35,1025.769,1059.125z"/>
			<g>
				<g>
					<path style="fill:#FDBAA0;" d="M936.9,1457.985c112.343-20.29,241.42-150.88,271.462-193.691
						c56.183-80.06,139.071-118.747,138.693-134.322c-0.378-15.574-35.264-49.114-109.42-15.924
						c-70.451,31.532-122.001,89.619-166.052,83.142c-17.425-2.562-124.913-8.438-124.913-8.438S893.978,1465.737,936.9,1457.985z"
						/>
				</g>
				<g>
					<g>
						<path style="fill:#E79780;" d="M1327.453,1141.598c0.253-6.159-8.065-2.205-10.27-0.763c-1.638,1.072-3.165,2.361-4.697,3.573
							c-3.528,2.793-6.958,5.708-10.395,8.611c-6.073,5.129-20.282,13.278-12.018,22.292c2.268,2.474-1.978,5.51-4.221,3.063
							c-12.138-13.241,8.436-25.635,17.159-32.934c5.551-4.645,12.53-12.322,20.337-12.462c5.58-0.1,9.464,4.164,9.245,9.502
							C1332.455,1145.819,1327.316,1144.915,1327.453,1141.598L1327.453,1141.598z"/>
					</g>
				</g>
			</g>
			<g>
				<g>
					<path style="fill:#EF9F8A;" d="M1009.522,1194.485c25.408,3.73,51.058,4.393,76.626,1.979c4.865-0.459,4.671,7.135-0.141,7.59
						c-25.568,2.413-51.217,1.751-76.625-1.98C1004.605,1201.373,1004.7,1193.777,1009.522,1194.485L1009.522,1194.485z"/>
				</g>
			</g>
			<g>
				<g>
					<path style="fill:#EF9F8A;" d="M954.654,1457.634c-23.913,3.132-47.871,1.13-70.944-5.876
						c-4.537-1.377-1.963-8.267,2.553-6.896c27.56,8.368,41.261,8.912,67.206,5.513
						C958.146,1449.763,959.365,1457.017,954.654,1457.634L954.654,1457.634z"/>
				</g>
			</g>
			<g>
				<g>
					<path style="fill:#FFFFFF;" d="M682.409,1667.097c0,0,145.19-103.921,139.114-116.447
						c-6.075-12.527-136.044-230.203-151.984-298.635c0,0,0.248-13.158-19.051-7.856s-180.539,64.326-180.539,64.326l36.889,214.896
						L682.409,1667.097z"/>
				</g>
				<g>
					<path style="fill:#384955;" d="M187.328,1335.791l-91.049,382.682l441.362,105.01c123.4-92.3,192.481-148.187,192.883-170.057
						c0.097-4.816-1.657-10.925-4.87-18.077c-3.77-8.371-9.542-18.22-16.725-29.146c-36.648-55.973-109.55-140.827-135.396-208.396
						c-14.412-37.71-25.977-68.065-38.219-90.099c-3.932-7.078-7.918-13.295-12.111-18.626
						c-14.588-18.57-31.45-26.318-55.533-21.859C452.568,1270.019,269.347,1304.845,187.328,1335.791z"/>
				</g>
				<g>
					<path style="fill:#198DA5;" d="M783.73,1557.056c2.514-6.097-0.39-13.077-6.486-15.591c-6.096-2.514-13.075,0.391-15.589,6.488
						c-2.514,6.097,0.39,13.077,6.486,15.591C774.236,1566.057,781.216,1563.153,783.73,1557.056z"/>
				</g>
			</g>
		</g>
	</g>
</g>
</svg>
